<mxfile host="app.diagrams.net" modified="2021-04-18T16:36:13.297Z" agent="5.0 (Macintosh; Intel Mac OS X 11_2_3) AppleWebKit/537.36 (KHTML, like Gecko) Chrome/89.0.4389.128 Safari/537.36" etag="dgeUBfsuh-OSWZkHbktQ" version="14.6.1" type="github">
  <diagram id="Ve9joE51h4fLwJOsWvly" name="Page-1">
    <mxGraphModel dx="946" dy="557" grid="1" gridSize="10" guides="1" tooltips="1" connect="1" arrows="1" fold="1" page="1" pageScale="1" pageWidth="827" pageHeight="1169" math="0" shadow="0">
      <root>
        <mxCell id="0" />
        <mxCell id="1" parent="0" />
        <mxCell id="HYmvLcV-dyNbXu19O9Cb-3" value="" style="edgeStyle=orthogonalEdgeStyle;rounded=0;orthogonalLoop=1;jettySize=auto;html=1;" edge="1" parent="1" source="HYmvLcV-dyNbXu19O9Cb-1" target="HYmvLcV-dyNbXu19O9Cb-2">
          <mxGeometry relative="1" as="geometry" />
        </mxCell>
        <mxCell id="HYmvLcV-dyNbXu19O9Cb-1" value="生成异构体" style="rounded=0;whiteSpace=wrap;html=1;" vertex="1" parent="1">
          <mxGeometry x="200" y="90" width="120" height="60" as="geometry" />
        </mxCell>
        <mxCell id="HYmvLcV-dyNbXu19O9Cb-5" value="" style="edgeStyle=orthogonalEdgeStyle;rounded=0;orthogonalLoop=1;jettySize=auto;html=1;" edge="1" parent="1" source="HYmvLcV-dyNbXu19O9Cb-2" target="HYmvLcV-dyNbXu19O9Cb-4">
          <mxGeometry relative="1" as="geometry" />
        </mxCell>
        <mxCell id="HYmvLcV-dyNbXu19O9Cb-2" value="得到异构体各个原子G1，G2，G3特征" style="rounded=0;whiteSpace=wrap;html=1;" vertex="1" parent="1">
          <mxGeometry x="200" y="230" width="120" height="60" as="geometry" />
        </mxCell>
        <mxCell id="HYmvLcV-dyNbXu19O9Cb-7" value="" style="edgeStyle=orthogonalEdgeStyle;rounded=0;orthogonalLoop=1;jettySize=auto;html=1;" edge="1" parent="1" source="HYmvLcV-dyNbXu19O9Cb-4" target="HYmvLcV-dyNbXu19O9Cb-6">
          <mxGeometry relative="1" as="geometry" />
        </mxCell>
        <mxCell id="HYmvLcV-dyNbXu19O9Cb-4" value="将G1，G2，G3传入XLC能量预测模型" style="rounded=0;whiteSpace=wrap;html=1;" vertex="1" parent="1">
          <mxGeometry x="200" y="370" width="120" height="60" as="geometry" />
        </mxCell>
        <mxCell id="HYmvLcV-dyNbXu19O9Cb-9" value="" style="edgeStyle=orthogonalEdgeStyle;rounded=0;orthogonalLoop=1;jettySize=auto;html=1;" edge="1" parent="1" source="HYmvLcV-dyNbXu19O9Cb-6" target="HYmvLcV-dyNbXu19O9Cb-8">
          <mxGeometry relative="1" as="geometry" />
        </mxCell>
        <mxCell id="HYmvLcV-dyNbXu19O9Cb-6" value="修改参数" style="rounded=0;whiteSpace=wrap;html=1;" vertex="1" parent="1">
          <mxGeometry x="200" y="500" width="120" height="80" as="geometry" />
        </mxCell>
        <mxCell id="HYmvLcV-dyNbXu19O9Cb-11" value="" style="edgeStyle=orthogonalEdgeStyle;rounded=0;orthogonalLoop=1;jettySize=auto;html=1;" edge="1" parent="1" source="HYmvLcV-dyNbXu19O9Cb-8" target="HYmvLcV-dyNbXu19O9Cb-10">
          <mxGeometry relative="1" as="geometry" />
        </mxCell>
        <mxCell id="HYmvLcV-dyNbXu19O9Cb-8" value="评估异构体能量" style="rounded=0;whiteSpace=wrap;html=1;" vertex="1" parent="1">
          <mxGeometry x="200" y="640" width="120" height="80" as="geometry" />
        </mxCell>
        <mxCell id="HYmvLcV-dyNbXu19O9Cb-10" value="分析筛选出B40最优结构" style="rounded=0;whiteSpace=wrap;html=1;" vertex="1" parent="1">
          <mxGeometry x="200" y="800" width="120" height="80" as="geometry" />
        </mxCell>
        <mxCell id="HYmvLcV-dyNbXu19O9Cb-16" value="" style="endArrow=classic;html=1;exitX=1;exitY=0.5;exitDx=0;exitDy=0;" edge="1" parent="1" source="HYmvLcV-dyNbXu19O9Cb-8">
          <mxGeometry width="50" height="50" relative="1" as="geometry">
            <mxPoint x="390" y="690" as="sourcePoint" />
            <mxPoint x="440" y="520" as="targetPoint" />
            <Array as="points">
              <mxPoint x="440" y="680" />
            </Array>
          </mxGeometry>
        </mxCell>
        <mxCell id="HYmvLcV-dyNbXu19O9Cb-18" value="" style="endArrow=classic;html=1;entryX=1;entryY=0.25;entryDx=0;entryDy=0;" edge="1" parent="1" target="HYmvLcV-dyNbXu19O9Cb-6">
          <mxGeometry width="50" height="50" relative="1" as="geometry">
            <mxPoint x="440" y="520" as="sourcePoint" />
            <mxPoint x="410" y="535" as="targetPoint" />
          </mxGeometry>
        </mxCell>
      </root>
    </mxGraphModel>
  </diagram>
</mxfile>
